<?xml version="1.0" encoding="utf-8"?>
<!-- Generator: Adobe Illustrator 19.0.0, SVG Export Plug-In . SVG Version: 6.00 Build 0)  -->
<svg version="1.1" id="Logos" xmlns="http://www.w3.org/2000/svg" xmlns:xlink="http://www.w3.org/1999/xlink" x="0px" y="0px"
	 width="241.4px" height="57.3px" viewBox="84.5 143.4 241.4 57.3" style="enable-background:new 84.5 143.4 241.4 57.3;"
	 xml:space="preserve">
<style type="text/css">
	.st0{fill:#E31837;}
</style>
<g>
	<g>
		<g>
			<polygon class="st0" points="98.1,154.6 98,154.6 98,154.6 			"/>
			<path class="st0" d="M254.7,172.3c-1,0-2-0.3-3-0.9l-0.5-0.3l-2.3,5.1l0.4,0.2c2,1.1,3.8,1.5,6,1.5c4.1,0,6.5-2,8.5-7.1l9.9-25.6
				h-0.8h-6.2c0,0-5.1,14.7-5.9,17c-0.9-2.3-6.5-17-6.5-17h-7.1c0,0,10.1,24.3,10.3,24.7C256.7,171.9,255.8,172.3,254.7,172.3z"/>
			<path class="st0" d="M190.5,165.8l0.3-0.4l-4.1-4l-0.4,0.4c-1.9,2-3.8,2.9-5.9,2.9c-3.8,0-6.7-3.1-6.7-7.3v-0.1
				c0-4,2.8-7.2,6.4-7.2c2.8,0,4.5,1.4,5.9,2.9l0.4,0.4l4.2-4.5l-0.3-0.4c-2.7-3-5.8-4.3-10.1-4.3c-7.3,0-13.1,5.8-13.1,13.2v0.1
				c0,7.3,5.7,13,13,13C185.6,170.6,188.4,168.2,190.5,165.8z"/>
			<path class="st0" d="M205.6,170.5c7.6,0,13.5-5.8,13.5-13.1v-0.1c0-7.3-5.9-13.1-13.4-13.1s-13.5,5.8-13.5,13.2v0.1
				C192.2,164.7,198.1,170.5,205.6,170.5z M198.8,157.2c0-4.2,2.8-7.2,6.8-7.2c3.9,0,6.9,3.1,6.9,7.3v0.1c0,3.6-2.3,7.2-6.8,7.2
				C201.8,164.6,198.8,161.4,198.8,157.2L198.8,157.2z"/>
			<path class="st0" d="M156.3,145v0.5v13.8c0,2.8-1.8,4.8-4.5,4.8c-2.6,0-4.6-2.1-4.6-4.8V145h-6.9v14.4c0,6.3,5,10.4,11.4,10.4
				c2,0,3.8-0.7,5.4-1.5c0.2-0.1,0.3-0.2,0.5-0.2l0.1,1.3v0.5h5.6v-10.4V157v-12H156.3L156.3,145z"/>
			<path class="st0" d="M229.8,169.8v-0.5v-13.8c0-2.8,1.8-4.8,4.5-4.8c2.6,0,4.6,2.1,4.6,4.8v14.3h6.9v-14.4
				c0-6.3-5-10.4-11.4-10.4c-2,0-3.8,0.7-5.4,1.5c-0.2,0.1-0.3,0.2-0.5,0.2l-0.1-1.3V145h-5.6v10.5v2.3v12H229.8L229.8,169.8z"/>
			<path class="st0" d="M129.1,145.4v1.1c-2-1.1-4.4-2.3-7-2.3c-7.7,0-13.7,5.4-13.7,12.9v0.1c0,7.5,6,12.8,13.6,12.8
				c2.6,0,5-1.2,7.1-2.4v1.1v0.7h6.2v-24.5h-6.2V145.4z M122.3,164.5c-4.2,0-7.5-3.3-7.5-7.4c0-4.1,3.4-7.4,7.5-7.4
				c4.2,0,7.5,3.3,7.5,7.4C129.9,161.2,126.5,164.5,122.3,164.5z"/>
			<path class="st0" d="M96.3,148.5c1.7,0,4,0.8,6.9,2.4l0.2,0.1l2.6-4.7l-0.2-0.1c-2.8-1.7-6.4-2.8-9.5-2.8c-4.8,0-9.7,2.6-9.7,8.3
				v0.1c0,4.7,4.3,6.6,8.1,7.7c2.5,0.7,4.9,1.6,4.9,3.5v0.1c0,0.8-0.4,2.9-3.7,2.9c-2.3,0-5.3-1.4-8.3-3.4l-0.2-0.2l-2.9,4.5
				l0.2,0.1c3.2,2.4,7.2,4,11,4c6.5,0,10.1-3.2,10.1-8.4v-0.5c0-3.3-2.6-5.8-8-7.6l0,0l0,0l0,0l-0.7-0.2c-2.5-0.8-4.3-1.4-4.3-3.3
				v-0.1C92.9,149.7,94,148.5,96.3,148.5z"/>
		</g>
		<path class="st0" d="M325.6,173.6L325.6,173.6c-2-1.4-2-1.4-3.4-2.2c-13.3-8.1-20.2-9-26.6-6.9c-5,1.7-13.6,8.5-13.6,8.5
			c-7.9,5.3-15.8,13.9-34.5,12.9c-17.4-0.9-53.1-10.2-53.6-10.3c-0.4-0.1-0.9,0.2-0.8,0.7c0.1,0.4,1,2.3,1,2.3
			c0.1,0.3,0.3,0.3,0.4,0.4c14.3,5.7,57.7,21.7,73,21.7c18.3,0,33.4-25.4,49.7-25.4c5.1,0,6.3,0.2,7.1,0.2c0.7,0.1,1.3-0.2,1.5-0.8
			C325.9,174.6,326.1,174.1,325.6,173.6z M276.9,192.9L276.9,192.9L276.9,192.9z M278.4,189.9c-0.2,1-0.8,1.9-1.7,2.5l0,0
			c-0.9,0.6-1.9,0.8-2.9,0.6c-1-0.2-1.9-0.8-2.5-1.7c-1.2-1.8-0.7-4.2,1.1-5.4c1.8-1.2,4.2-0.7,5.4,1.1
			C278.4,187.9,278.6,188.9,278.4,189.9z M288.2,184.8c-1.8,1.2-4.2,0.7-5.4-1.1c-1.2-1.8-0.7-4.2,1.1-5.4c1.8-1.2,4.2-0.7,5.4,1.1
			c0.4,0.7,0.7,1.4,0.7,2.2C290,182.7,289.4,184,288.2,184.8z M301.4,174.6c-0.2,1-0.8,1.9-1.7,2.5c-0.9,0.6-1.9,0.8-2.9,0.6
			c-1-0.2-1.9-0.8-2.5-1.7c-0.6-0.9-0.8-1.9-0.6-2.9c0.2-1,0.8-1.9,1.7-2.5c0.9-0.6,1.9-0.8,2.9-0.6s1.9,0.8,2.5,1.7
			C301.4,172.5,301.6,173.6,301.4,174.6z"/>
	</g>
	<g>
		<path class="st0" d="M280.1,145.3c2.6,0,4.8,2.1,4.8,4.7c0,2.7-2.2,4.8-4.8,4.8c-2.6,0-4.8-2-4.8-4.7
			C275.3,147.3,277.5,145.3,280.1,145.3z M280.1,154.1c2.3,0,4-1.8,4-4.1s-1.8-4.1-4-4.1s-4,1.8-4,4.1
			C276.1,152.4,277.9,154.1,280.1,154.1z M278.3,147.3h2c1.3,0,1.9,0.5,1.9,1.6c0,1-0.6,1.4-1.5,1.5l1.6,2.4h-0.8l-1.5-2.4h-1v2.4
			h-0.8L278.3,147.3L278.3,147.3z M279.1,149.8h1c0.8,0,1.5,0,1.5-0.9c0-0.8-0.7-0.9-1.2-0.9h-1.2L279.1,149.8L279.1,149.8z"/>
	</g>
</g>
</svg>
